<?xml version="1.0" encoding="UTF-8" standalone="no"?>
<svg
   width="1109"
   height="550"
   viewBox="0 0 1109 550"
   fill="none"
   version="1.1"
   id="svg11"
   sodipodi:docname="d04d849adce29b95126658b970c8a47a.svg"
   xmlns:inkscape="http://www.inkscape.org/namespaces/inkscape"
   xmlns:sodipodi="http://sodipodi.sourceforge.net/DTD/sodipodi-0.dtd"
   xmlns="http://www.w3.org/2000/svg"
   xmlns:svg="http://www.w3.org/2000/svg">
  <sodipodi:namedview
     id="namedview13"
     pagecolor="#ffffff"
     bordercolor="#666666"
     borderopacity="1.0"
     inkscape:pageshadow="2"
     inkscape:pageopacity="0.0"
     inkscape:pagecheckerboard="0" />
  <path
     d="M1108.48 550C1108.48 477.773 1094.15 406.253 1066.31 339.524C1038.47 272.795 997.66 212.163 946.217 161.091C894.773 110.019 833.701 69.5063 766.486 41.8662C699.272 14.2262 627.232 -3.15714e-06 554.48 0C481.727 3.15714e-06 409.687 14.2262 342.473 41.8663C275.259 69.5064 214.186 110.019 162.743 161.091C111.299 212.164 70.4916 272.795 42.6505 339.524C14.8094 406.253 0.47973 477.773 0.479736 550L1108.48 550Z"
     fill="url(#paint0_linear_1_160)"
     id="path2" />
  <defs
     id="defs9">
    <linearGradient
       id="paint0_linear_1_160"
       x1="554.48"
       y1="0"
       x2="554.48"
       y2="550"
       gradientUnits="userSpaceOnUse">
      <stop
         stop-color="#E9F0F7"
         id="stop4" />
      <stop
         offset="1"
         stop-color="#F4FAFF"
         id="stop6" />
    </linearGradient>
  </defs>
</svg>
