<svg width="10" height="26" viewBox="0 0 10 26" fill="none" xmlns="http://www.w3.org/2000/svg">
<path d="M9.10107 25.2809H2.40835C2.40835 24.5282 2.40835 23.9064 2.40835 23.4155C2.41925 22.9245 2.43016 22.4664 2.44107 22.0409C2.44107 22.0082 2.44107 21.9755 2.44107 21.9427C2.4738 20.8518 2.49016 19.69 2.49016 18.4573C2.49016 16.8973 2.43562 15.2391 2.32653 13.4827C2.21744 11.7155 2.00471 9.88273 1.68835 7.98454C1.37198 6.08636 0.902891 4.13909 0.281072 2.14273L6.66289 0.129999C7.37198 2.42091 7.90653 4.65182 8.26653 6.82273C8.63744 8.99364 8.88289 11.0718 9.00289 13.0573C9.12289 15.0318 9.18289 16.8645 9.18289 18.5555C9.18289 19.8209 9.16653 20.9936 9.1338 22.0736C9.1338 22.0955 9.1338 22.1118 9.1338 22.1227C9.12289 22.5373 9.11198 22.9845 9.10107 23.4645C9.10107 23.9336 9.10107 24.5391 9.10107 25.2809Z" fill="#ECECEC"/>
</svg>
