<svg width="25" height="27" viewBox="0 0 25 27" fill="none" xmlns="http://www.w3.org/2000/svg">
<path d="M24.171 17.3627C24.171 17.3627 23.9092 17.4336 23.3856 17.5755C22.862 17.7064 22.022 17.8427 20.8656 17.9845C19.7201 18.1264 18.1929 18.1973 16.2838 18.1973C15.2256 18.1973 14.0747 18.0827 12.831 17.8536C11.5874 17.6136 10.5947 17.3027 9.85286 16.9209C9.94014 18.9827 9.98377 20.7936 9.98377 22.3536C9.98377 23.0736 9.97832 23.7555 9.96741 24.3991V26.7064H3.25832C3.25832 25.9864 3.26377 25.4518 3.27468 25.1027C3.27468 24.8409 3.27468 24.59 3.27468 24.35V22.4518C3.27468 20.8045 3.22559 18.9773 3.12741 16.97C3.02923 14.9518 2.80014 12.8245 2.44014 10.5882C2.09104 8.35182 1.55104 6.05 0.820135 3.68273L7.21832 1.67C7.90559 3.66636 8.4565 5.73364 8.87104 7.87182C8.96923 6.89 9.25286 5.97909 9.72195 5.13909C10.191 4.29909 10.6329 3.68818 11.0474 3.30636C11.8656 2.55364 12.7765 1.98091 13.7801 1.58818C14.7838 1.18454 15.8092 0.982727 16.8565 0.982727C17.6638 0.982727 18.3892 1.07545 19.0329 1.26091C19.6765 1.44636 20.2929 1.69182 20.882 1.99727C21.471 2.30273 22.0656 2.63545 22.6656 2.99545C22.9601 3.17 23.282 3.35545 23.631 3.55182L20.8001 8.42818L19.7692 7.82273C19.0601 7.40818 18.4492 7.14636 17.9365 7.03727C17.4347 6.92818 17.0256 6.87364 16.7092 6.87364C16.6438 6.86273 16.5783 6.85727 16.5129 6.85727H16.3492C15.8583 6.85727 15.4383 7.02091 15.0892 7.34818C14.751 7.66455 14.5547 8.02455 14.5001 8.42818C14.4892 8.53727 14.4838 8.64091 14.4838 8.73909C14.4838 9.07727 14.5438 9.37182 14.6638 9.62273C14.7947 9.87364 14.931 10.0755 15.0729 10.2282C15.2147 10.37 15.3183 10.4627 15.3838 10.5064C16.191 11.03 17.3692 11.2918 18.9183 11.2918C19.071 11.2918 19.2183 11.2864 19.3601 11.2755C19.9056 11.2318 20.4729 11.1718 21.062 11.0955C21.651 11.0082 22.082 10.9373 22.3547 10.8827C22.6165 10.8282 22.7474 10.8009 22.7474 10.8009L24.171 17.3627Z" fill="#ECECEC"/>
</svg>
