<svg width="25" height="26" viewBox="0 0 25 26" fill="none" xmlns="http://www.w3.org/2000/svg">
<path d="M24.0145 0.35909C24.0145 0.369999 24.0145 0.375454 24.0145 0.375454C24.0582 0.549999 24.14 0.948181 24.26 1.57C24.3909 2.19182 24.5163 2.92273 24.6363 3.76273C24.7563 4.60273 24.8163 5.40454 24.8163 6.16818C24.8163 7.31364 24.7127 8.45364 24.5054 9.58818C24.3091 10.7118 23.8891 11.7264 23.2454 12.6318C22.6345 13.4936 21.8818 14.1645 20.9872 14.6445C20.0818 15.1355 19.0945 15.3809 18.0254 15.3809C16.3563 15.3809 14.9054 14.9336 13.6727 14.0391C12.5818 14.9118 11.2618 15.3809 9.7127 15.4464H9.07452C9.1727 16.8864 9.22179 18.3536 9.22179 19.8482C9.22179 20.8082 9.21088 21.7355 9.18906 22.63V25.2482H2.47997C2.47997 24.5609 2.47997 24.0209 2.47997 23.6282C2.47997 23.2355 2.48543 22.8755 2.49634 22.5482C2.49634 22.4827 2.49634 22.4173 2.49634 22.3518C2.50724 21.6645 2.5127 20.9336 2.5127 20.1591C2.5127 18.4682 2.4527 16.5973 2.3327 14.5464C2.2127 12.4955 1.95088 10.3245 1.54724 8.03364C1.41634 7.57545 1.27997 7.01364 1.13815 6.34818C1.00724 5.68273 0.909063 5.17545 0.843608 4.82636C0.832699 4.73909 0.82179 4.67909 0.810881 4.64636C0.603608 3.83909 0.369063 3.03727 0.107244 2.24091L6.50543 0.211818C6.58179 0.549999 6.65815 0.877272 6.73452 1.19364C7.0727 2.76455 7.37815 4.09 7.65088 5.17C7.93452 6.23909 8.21815 7.05182 8.50179 7.60818C8.78543 8.16455 9.11815 8.44273 9.49997 8.44273C9.71815 8.44273 9.87088 8.31727 9.95815 8.06636C10.0454 7.81545 10.0891 7.45545 10.0891 6.98636C10.0891 6.44091 10.04 5.76455 9.94179 4.95727C9.85452 4.15 9.73997 3.22818 9.59815 2.19182C9.56543 1.96273 9.5327 1.72273 9.49997 1.47182L16.0291 0.833637C16.0727 1.23727 16.1109 1.64636 16.1436 2.06091C16.2091 2.74818 16.3236 3.58818 16.4872 4.58091C16.6509 5.57364 16.8472 6.46818 17.0763 7.26455C17.3163 8.05 17.5672 8.44273 17.8291 8.44273C18.0036 8.44273 18.14 8.32818 18.2382 8.09909C18.3472 7.85909 18.4018 7.46091 18.4018 6.90454C18.4018 5.86818 18.1891 4.17182 17.7636 1.81545L24.0145 0.35909Z" fill="#ECECEC"/>
</svg>
