<svg width="20" height="26" viewBox="0 0 20 26" fill="none" xmlns="http://www.w3.org/2000/svg">
<path d="M18.664 2.15909C19.0568 3.81727 19.2531 5.19727 19.2531 6.29909C19.2531 7.09545 19.1931 7.90273 19.0731 8.72091C18.964 9.52818 18.7568 10.3027 18.4513 11.0445C18.1459 11.7755 17.7149 12.4355 17.1586 13.0245C15.6422 14.5955 13.7768 15.3809 11.5622 15.3809C10.7659 15.3809 9.98585 15.2718 9.22222 15.0536C9.30949 16.0027 9.36403 16.9845 9.38585 17.9991C9.41858 19.0136 9.43494 20.0009 9.43494 20.9609C9.43494 21.6373 9.42949 22.2864 9.41858 22.9082V25.2318H2.70949V21.7627C2.70949 19.5809 2.64403 17.3936 2.51313 15.2009C2.39312 12.9973 2.15312 10.81 1.79312 8.63909C1.43312 6.45727 0.925852 4.30818 0.271307 2.19182L6.65313 0.17909C7.00222 1.25909 7.31858 2.36636 7.60222 3.50091C7.71131 3.92636 7.85313 4.39 8.02767 4.89182C8.20222 5.39364 8.4204 5.87909 8.68222 6.34818C8.95494 6.80636 9.28767 7.18818 9.6804 7.49364C10.0731 7.78818 10.5422 7.93545 11.0877 7.93545C11.2404 7.93545 11.3986 7.92454 11.5622 7.90273C11.9986 7.82636 12.304 7.61364 12.4786 7.26455C12.664 6.91545 12.7568 6.47909 12.7568 5.95545C12.7568 5.38818 12.6859 4.76091 12.544 4.07364C12.4022 3.38636 12.2386 2.68818 12.0531 1.97909L18.0749 0.0972722C18.0859 0.129999 18.1459 0.337272 18.2549 0.71909C18.3749 1.09 18.5113 1.57 18.664 2.15909Z" fill="#ECECEC"/>
</svg>
